<?xml version="1.0" encoding="utf-8"?>
<!-- Generator: Adobe Illustrator 24.1.0, SVG Export Plug-In . SVG Version: 6.00 Build 0)  -->
<svg version="1.1" xmlns="http://www.w3.org/2000/svg" xmlns:xlink="http://www.w3.org/1999/xlink" x="0px" y="0px"
	 viewBox="0 0 595.3 841.9" style="enable-background:new 0 0 595.3 841.9;" xml:space="preserve">
<style type="text/css">
	.st0{display:none;}
	.st1{fill:#FFFFFF;}
	.st2{fill:none;stroke:#000000;stroke-linecap:round;stroke-miterlimit:10;}
	.st3{fill:none;stroke:#000000;stroke-linecap:round;stroke-linejoin:round;stroke-miterlimit:10;}
	.st4{fill:none;stroke:#000000;stroke-miterlimit:10;}
	.st5{fill:#FFFFFF;stroke:#FFFFFF;stroke-width:4;stroke-miterlimit:10;}
</style>
<g id="Capa_1">
	<g id="Capa_2_1_" class="st0">
	</g>
	<g id="Capa_1_1_">
		<g>
			<g id="XMLID_1_">
				<g>
					<path class="st1" d="M582,269.1v165.7c0,74.1-28.3,141.5-74.4,192.8V435.5c-0.3-116.4-94.2-210.3-210-210.3S88,319,88,434.8
						c0,65.7,30.2,124.2,77.4,162.7v89.1C75,638.9,13.3,544.1,13.3,434.8c0-157,127.3-284.3,284.3-284.3c83.1,0,157.9,35.7,210,92.6
						v-18.8v-98.4c16-25.5,43.1-50.9,74.4-52.9V269.1z"/>
					<path class="st1" d="M436.3,434.8v135.5c-13.6,161.3-138.7,148.9-138.7,148.9c-25.2,0-49.7-3.4-73-9.5v-78.3
						c22.7,8.4,47.3,13.1,73,13.1c0,0,62.4-0.8,64.5-86.9c-19.3,10.2-41.2,15.9-64.5,15.9C221,573.5,159,511.4,159,434.8
						s62.1-138.7,138.7-138.7c23.3,0,45.2,5.8,64.5,15.9C406.3,335.2,436.3,381.5,436.3,434.8z M362.2,434.8
						c0-35.6-28.9-64.5-64.5-64.5s-64.5,28.8-64.5,64.5s28.9,64.5,64.5,64.5S362.2,470.4,362.2,434.8z"/>
				</g>
				<g>
					<path class="st2" d="M362.2,312c-19.3-10.2-41.2-15.9-64.5-15.9C221,296.1,159,358.2,159,434.8s62.1,138.7,138.7,138.7
						c23.3,0,45.2-5.8,64.5-15.9"/>
					<line class="st3" x1="436.3" y1="570.3" x2="436.3" y2="434.8"/>
					<path class="st4" d="M436.3,434.8c0-53.3-30.1-99.5-74.2-122.7"/>
					<path class="st4" d="M362.2,434.8c0,35.7-28.9,64.5-64.5,64.5s-64.5-28.8-64.5-64.5c0-35.6,28.9-64.5,64.5-64.5
						S362.2,399.2,362.2,434.8z"/>
					<path class="st3" d="M362.2,557.6c-2.1,86.1-64.5,86.9-64.5,86.9c-25.7,0-50.3-4.6-73-13.1v78.3c23.3,6.2,47.8,9.5,73,9.5
						c0,0,125.1,12.4,138.7-148.9"/>
					<path class="st3" d="M507.6,224.3V243c-52-56.9-126.8-92.6-210-92.6c-157.1,0-284.3,127.3-284.3,284.3
						C13.3,544,75,638.9,165.4,686.5v-89.1C118.2,559,88,500.5,88,434.8c0-115.8,93.8-209.6,209.6-209.6s209.6,93.8,210,210.3v192.1
						c46.1-51.3,74.4-118.7,74.4-192.8V269.1"/>
					<path class="st3" d="M582,269.1V73c-31.2,2-58.4,27.4-74.4,52.9v98.4"/>
				</g>
			</g>
		</g>
	</g>
</g>
<g id="Capa_2">
	<g>
		<path class="st5" d="M94.7,760.7h14.2c5.7,0,10.1,0.7,13.1,2c3.1,1.4,5.5,3.4,7.3,6.2c1.8,2.8,2.7,5.9,2.7,9.3
			c0,3.2-0.8,6.1-2.3,8.7c-1.6,2.6-3.8,4.7-6.9,6.4c3.7,1.3,6.6,2.8,8.6,4.5c2,1.7,3.6,3.8,4.7,6.2c1.1,2.4,1.7,5.1,1.7,7.9
			c0,5.8-2.1,10.6-6.3,14.6c-4.2,4-9.9,6-17,6H94.7V760.7z M101.8,767.7v23h4.1c5,0,8.7-0.5,11-1.4c2.3-0.9,4.2-2.4,5.6-4.4
			c1.4-2,2.1-4.2,2.1-6.7c0-3.3-1.2-5.9-3.5-7.7c-2.3-1.9-6-2.8-11-2.8H101.8z M101.8,797.9v27.5h8.9c5.3,0,9.1-0.5,11.5-1.5
			c2.4-1,4.4-2.6,5.9-4.8c1.5-2.2,2.2-4.5,2.2-7.1c0-3.2-1-6-3.1-8.3c-2.1-2.4-5-4-8.6-4.9c-2.4-0.6-6.7-0.9-12.8-0.9H101.8z"/>
		<path class="st5" d="M203.8,779.4v53.1H197v-9.1c-2.9,3.5-6.1,6.1-9.6,7.9s-7.5,2.6-11.7,2.6c-7.5,0-13.9-2.7-19.3-8.2
			c-5.3-5.5-8-12.1-8-19.9c0-7.6,2.7-14.2,8.1-19.6c5.4-5.4,11.8-8.2,19.4-8.2c4.4,0,8.3,0.9,11.8,2.8c3.5,1.9,6.6,4.6,9.3,8.3v-9.8
			H203.8z M176.4,784.6c-3.8,0-7.3,0.9-10.5,2.8c-3.2,1.9-5.8,4.5-7.7,7.9c-1.9,3.4-2.9,7-2.9,10.7c0,3.7,1,7.3,2.9,10.7
			c1.9,3.4,4.5,6.1,7.7,8c3.2,1.9,6.7,2.9,10.4,2.9c3.7,0,7.3-0.9,10.6-2.8c3.3-1.9,5.9-4.4,7.7-7.7c1.8-3.2,2.7-6.8,2.7-10.9
			c0-6.1-2-11.3-6.1-15.4C187.3,786.7,182.4,784.6,176.4,784.6z"/>
		<path class="st5" d="M270.7,790.4l-5.4,3.4c-4.7-6.2-11.1-9.3-19.2-9.3c-6.5,0-11.8,2.1-16.1,6.2c-4.3,4.2-6.4,9.2-6.4,15.2
			c0,3.9,1,7.5,3,10.9c2,3.4,4.7,6.1,8.1,8s7.3,2.8,11.5,2.8c7.8,0,14.2-3.1,19.1-9.3l5.4,3.6c-2.5,3.8-5.9,6.8-10.2,8.9
			c-4.3,2.1-9.2,3.2-14.6,3.2c-8.4,0-15.4-2.7-20.9-8c-5.5-5.3-8.3-11.8-8.3-19.5c0-5.1,1.3-9.9,3.9-14.3c2.6-4.4,6.1-7.9,10.7-10.3
			c4.5-2.5,9.6-3.7,15.2-3.7c3.5,0,6.9,0.5,10.2,1.6s6,2.5,8.3,4.2C267.2,785.5,269.1,787.7,270.7,790.4z"/>
		<path class="st5" d="M283.8,758.9h6.8v41.9l24.6-21.4h10l-29.2,25.3l30.9,27.8h-9.6l-26.8-23.9v23.9h-6.8V758.9z"/>
		<path class="st5" d="M335.2,760.7h41.2v7h-34v22.5h33.7v7h-33.7v28.2h33.7v7h-40.9V760.7z"/>
		<path class="st5" d="M387.6,779.4h6.8v9.5c2.7-3.6,5.8-6.4,9.1-8.2s6.9-2.7,10.8-2.7c4,0,7.5,1,10.6,3c3.1,2,5.3,4.7,6.8,8.2
			s2.2,8.7,2.2,16v27.3h-6.8v-25.3c0-6.1-0.3-10.2-0.8-12.3c-0.8-3.5-2.3-6.2-4.6-7.9c-2.2-1.8-5.2-2.7-8.8-2.7
			c-4.1,0-7.8,1.4-11.1,4.1c-3.3,2.7-5.4,6.1-6.5,10.2c-0.7,2.6-1,7.5-1,14.5v19.5h-6.8V779.4z"/>
		<path class="st5" d="M501.7,758.9v73.6h-6.7v-9.1c-2.9,3.5-6.1,6.1-9.6,7.9s-7.5,2.6-11.7,2.6c-7.5,0-13.9-2.7-19.3-8.2
			c-5.3-5.5-8-12.1-8-19.9c0-7.6,2.7-14.2,8.1-19.6c5.4-5.4,11.8-8.2,19.4-8.2c4.4,0,8.3,0.9,11.8,2.8c3.5,1.9,6.6,4.6,9.3,8.3
			v-30.3H501.7z M474.3,784.6c-3.8,0-7.3,0.9-10.5,2.8c-3.2,1.9-5.8,4.5-7.7,7.9c-1.9,3.4-2.9,7-2.9,10.7c0,3.7,1,7.3,2.9,10.7
			c1.9,3.4,4.5,6.1,7.7,8c3.2,1.9,6.7,2.9,10.4,2.9c3.7,0,7.3-0.9,10.6-2.8s5.9-4.4,7.7-7.7c1.8-3.2,2.7-6.8,2.7-10.9
			c0-6.1-2-11.3-6.1-15.4C485.2,786.7,480.3,784.6,474.3,784.6z"/>
	</g>
</g>
</svg>
